<?xml version="1.0" encoding="UTF-8" standalone="no"?>
<!-- Generated by IcoMoon.io -->

<svg
   xmlns:dc="http://purl.org/dc/elements/1.1/"
   xmlns:cc="http://creativecommons.org/ns#"
   xmlns:rdf="http://www.w3.org/1999/02/22-rdf-syntax-ns#"
   xmlns:svg="http://www.w3.org/2000/svg"
   xmlns="http://www.w3.org/2000/svg"
   xmlns:sodipodi="http://sodipodi.sourceforge.net/DTD/sodipodi-0.dtd"
   xmlns:inkscape="http://www.inkscape.org/namespaces/inkscape"
   version="1.1"
   width="28"
   height="28"
   viewBox="0 0 28 28"
   id="svg4181"
   inkscape:version="0.91 r13725"
   sodipodi:docname="error.svg">
  <metadata
     id="metadata4189">
    <rdf:RDF>
      <cc:Work
         rdf:about="">
        <dc:format>image/svg+xml</dc:format>
        <dc:type
           rdf:resource="http://purl.org/dc/dcmitype/StillImage" />
      </cc:Work>
    </rdf:RDF>
  </metadata>
  <defs
     id="defs4187" />
  <sodipodi:namedview
     pagecolor="#ffffff"
     bordercolor="#666666"
     borderopacity="1"
     objecttolerance="10"
     gridtolerance="10"
     guidetolerance="10"
     inkscape:pageopacity="0"
     inkscape:pageshadow="2"
     inkscape:window-width="1920"
     inkscape:window-height="1035"
     id="namedview4185"
     showgrid="false"
     inkscape:zoom="11.010663"
     inkscape:cx="-20.945603"
     inkscape:cy="25.206909"
     inkscape:window-x="0"
     inkscape:window-y="0"
     inkscape:window-maximized="1"
     inkscape:current-layer="svg4181" />
  <path
     d="m 16,22.483502 0,-2.969 q 0,-0.219 -0.148,-0.367 -0.148,-0.148 -0.352,-0.148 l -3,0 q -0.203,0 -0.352,0.148 -0.149,0.148 -0.148,0.367 l 0,2.969 q 0,0.219 0.148,0.367 0.148,0.148 0.352,0.148 l 3,0 q 0.203,0 0.352,-0.148 0.149,-0.148 0.148,-0.367 z m -0.031,-5.843 0.281,-7.1720002 q 0,-0.187 -0.156,-0.297 -0.203,-0.172 -0.375,-0.172 l -3.437,0 q -0.172,0 -0.375,0.172 -0.156,0.109 -0.156,0.328 l 0.266,7.1410002 q 0,0.156 0.156,0.258 0.156,0.102 0.375,0.102 l 2.891,0 q 0.219,0 0.367,-0.102 0.148,-0.102 0.164,-0.258 z M 15.75,2.0465018 l 12,22.0000002 q 0.547,0.984 -0.031,1.969 -0.266,0.453 -0.727,0.719 -0.461,0.266 -0.992,0.266 l -24,0 q -0.531,0 -0.992,-0.266 -0.461,-0.266 -0.727,-0.719 -0.578,-0.984 -0.031,-1.969 l 12,-22.0000002 q 0.266,-0.484 0.734,-0.766 0.468,-0.28200003 1.016,-0.28100003 0.548,0.001 1.016,0.28100003 0.468,0.28 0.734,0.766 z"
     id="path4183"
     style="fill:#969696;fill-opacity:1"
     inkscape:connector-curvature="0" />
</svg>
