<?xml version="1.0" encoding="UTF-8" standalone="no"?>
<!-- Created with Inkscape (http://www.inkscape.org/) -->

<svg
   xmlns:dc="http://purl.org/dc/elements/1.1/"
   xmlns:cc="http://creativecommons.org/ns#"
   xmlns:rdf="http://www.w3.org/1999/02/22-rdf-syntax-ns#"
   xmlns:svg="http://www.w3.org/2000/svg"
   xmlns="http://www.w3.org/2000/svg"
   xmlns:sodipodi="http://sodipodi.sourceforge.net/DTD/sodipodi-0.dtd"
   xmlns:inkscape="http://www.inkscape.org/namespaces/inkscape"
   width="256"
   height="256"
   viewBox="0 0 256 256"
   id="svg4253"
   version="1.1"
   inkscape:version="0.91 r13725"
   sodipodi:docname="icon.svg"
   inkscape:export-filename="/home/brian/dev/ubuntu/owncloud-files-scope/src/data/icon.png"
   inkscape:export-xdpi="90"
   inkscape:export-ydpi="90">
  <defs
     id="defs4255" />
  <sodipodi:namedview
     id="base"
     pagecolor="#ffffff"
     bordercolor="#666666"
     borderopacity="1.0"
     inkscape:pageopacity="0.0"
     inkscape:pageshadow="2"
     inkscape:zoom="1.4"
     inkscape:cx="60.555506"
     inkscape:cy="157.49503"
     inkscape:document-units="px"
     inkscape:current-layer="layer1"
     showgrid="false"
     units="px"
     inkscape:window-width="1920"
     inkscape:window-height="1035"
     inkscape:window-x="0"
     inkscape:window-y="0"
     inkscape:window-maximized="1" />
  <metadata
     id="metadata4258">
    <rdf:RDF>
      <cc:Work
         rdf:about="">
        <dc:format>image/svg+xml</dc:format>
        <dc:type
           rdf:resource="http://purl.org/dc/dcmitype/StillImage" />
        <dc:title />
      </cc:Work>
    </rdf:RDF>
  </metadata>
  <g
     inkscape:label="Layer 1"
     inkscape:groupmode="layer"
     id="layer1"
     transform="translate(0,-796.36219)">
    <rect
       style="fill:#1d2d44;fill-opacity:1;stroke:none;stroke-width:32;stroke-miterlimit:4;stroke-dasharray:none;stroke-opacity:1"
       id="rect5713"
       width="256"
       height="256"
       x="0"
       y="796.36218" />
    <path
       style="color:#000000;font-style:normal;font-variant:normal;font-weight:normal;font-stretch:normal;font-size:medium;line-height:normal;font-family:Sans;-inkscape-font-specification:Sans;text-indent:0;text-align:start;text-decoration:none;text-decoration-line:none;letter-spacing:normal;word-spacing:normal;text-transform:none;direction:ltr;block-progression:tb;writing-mode:lr-tb;baseline-shift:baseline;text-anchor:start;display:inline;overflow:visible;visibility:visible;fill:#ffffff;fill-opacity:1;stroke:none;stroke-width:4;marker:none;enable-background:accumulate"
       d="m 151.25198,831.0828 c -10.18432,0 -18.41232,8.22798 -18.41232,18.41232 0,4.19801 1.39787,8.06175 3.75467,11.1557 5.11273,-5.91763 12.65866,-9.6755 21.08391,-9.6755 4.12201,0 8.0308,0.91789 11.55283,2.52718 0.28516,-1.28959 0.43323,-2.63081 0.43323,-4.00738 0,-10.18434 -8.22798,-18.41232 -18.41232,-18.41232 z m -24.04432,8.52021 c -5.30372,0 -9.56719,4.29957 -9.56719,9.60329 0,1.71719 0.44303,3.33974 1.22749,4.72943 3.20047,-1.80542 6.90057,-2.8521 10.83077,-2.8521 0.3793,0 0.74462,0.0154 1.11919,0.0362 -0.0424,-0.53765 -0.0722,-1.07618 -0.0722,-1.62462 0,-2.95405 0.6416,-5.76469 1.76902,-8.30359 -1.51798,-1.01791 -3.33666,-1.58852 -5.30708,-1.58852 z m 45.41705,6.60677 c -0.39182,0 -0.76951,0.0481 -1.15528,0.0722 0.16687,1.05213 0.28882,2.11451 0.28882,3.21313 0,1.70974 -0.21745,3.35955 -0.61375,4.94605 4.64641,2.57139 8.50508,6.41882 11.0474,11.0835 2.63697,-1.37282 5.5786,-2.24573 8.70072,-2.45497 -0.80463,-9.43634 -8.62222,-16.85991 -18.26791,-16.85991 z m -14.94647,6.85949 c -14.25093,0 -25.77725,11.52536 -25.77725,25.77725 0,14.25036 11.52573,25.77729 25.77725,25.77729 14.25152,0 25.77725,-11.52696 25.77725,-25.77729 0,-14.25186 -11.52631,-25.77725 -25.77725,-25.77725 z m -27.97951,0.10831 c -11.05602,0 -20.00082,8.94481 -20.00082,20.00084 0,6.50845 3.10101,12.27011 7.90646,15.92124 2.02588,-3.90735 6.09477,-6.57068 10.79468,-6.57068 0.56802,0 1.11324,0.0689 1.66071,0.14441 -0.17186,-1.25035 -0.25271,-2.52958 -0.25271,-3.82687 0,-6.20261 2.019,-11.93841 5.45148,-16.57109 -2.05465,-2.57103 -3.52505,-5.66024 -4.15179,-9.02564 -0.46451,-0.0322 -0.93525,-0.0722 -1.40801,-0.0722 z m 62.6741,11.91385 c -3.35712,0 -6.50188,0.85709 -9.27837,2.31057 1.57659,3.49223 2.45498,7.36699 2.45498,11.44452 0,7.63484 -3.06964,14.56736 -8.05088,19.6037 3.65939,4.06266 8.96874,6.60675 14.87427,6.60675 11.05602,0 20.00083,-8.94478 20.00083,-20.0008 0,-11.05603 -8.94481,-19.96474 -20.00083,-19.96474 z m -84.62447,2.63549 c -10.184619,0 -18.448412,8.19159 -18.448412,18.37622 0,10.18462 8.263793,18.44846 18.448412,18.44846 3.87641,0 7.46731,-1.20781 10.43365,-3.24924 -1.22574,-1.90472 -1.94953,-4.18181 -1.94953,-6.6068 0,-1.25863 0.1857,-2.4678 0.54153,-3.61026 -5.55328,-4.01329 -9.17006,-10.54413 -9.17006,-17.90688 0,-1.87072 0.24652,-3.67961 0.68595,-5.41539 -0.18239,-0.005 -0.35783,-0.0362 -0.54154,-0.0362 z m 108.27166,15.81294 c -0.54332,0 -1.06904,0.0619 -1.58852,0.14441 0.0286,0.45923 0.0361,0.90545 0.0361,1.3719 0,5.87238 -2.31703,11.20233 -6.06523,15.16305 1.84398,2.14435 4.55253,3.50202 7.61765,3.50202 5.58312,0 10.10872,-4.48949 10.10872,-10.07266 0,-5.58312 -4.5256,-10.10872 -10.10872,-10.10872 z m -87.62097,1.08308 c -5.58284,0 -10.07263,4.48977 -10.07263,10.07262 0,5.58282 4.48979,10.10873 10.07263,10.10873 4.27931,0 7.91161,-2.67021 9.38667,-6.42628 -3.59919,-3.66573 -6.18589,-8.34227 -7.32882,-13.53846 -0.66883,-0.13831 -1.34769,-0.21661 -2.05785,-0.21661 z m 110.72663,8.4841 0,19.96473 -10.57806,0 c -6.91486,0 -12.5276,5.64873 -12.5276,12.56371 0,6.91389 5.61274,12.52756 12.5276,12.52756 l 3.06872,0 1.04697,0 c 2.02857,0 4.05422,-0.9852 5.66811,-2.49109 1.6139,-1.5058 2.84567,-3.59181 2.88821,-5.92081 0.0726,-3.99752 0,-15.63238 0,-15.63238 l 0,-0.50547 0,-20.50625 -2.09395,0 z m -96.71883,9.02568 0,27.61842 c 0,4.64179 3.80625,8.4119 8.44801,8.4119 l 0,-2.09389 c -3.51229,0 -6.35406,-2.80575 -6.35406,-6.31801 l 0,-26.31874 c -0.72899,-0.39185 -1.4056,-0.84667 -2.09395,-1.29968 z m -20.9395,2.5633 c -3.70878,3.53871 -6.02913,8.52125 -6.02913,14.04387 0,10.71544 8.70839,19.42315 19.42319,19.42315 l 0,-2.09389 c -9.58514,0 -17.32924,-7.74362 -17.32924,-17.32926 0,-5.15568 2.25044,-9.78913 5.81252,-12.96082 -0.66579,-0.30669 -1.28247,-0.66592 -1.87734,-1.08305 z m -24.658072,8.30354 c -6.91487,0 -12.527596,5.61267 -12.527596,12.52765 l 0,11.58893 2.093955,0 0,-11.58893 c 0,-5.78509 4.648641,-10.46982 10.433641,-10.46982 5.786142,0 10.469752,4.68473 10.469752,10.46982 l 0,11.58893 2.09395,0 0,-11.58893 c 0,-6.91498 -5.64788,-12.52765 -12.563702,-12.52765 z m 70.291732,0.0725 c -6.91525,0 -12.52759,5.64846 -12.52759,12.56371 0,6.91525 5.61234,12.56371 12.52759,12.56371 6.91527,0 12.5637,-5.64846 12.5637,-12.56371 0,-6.91525 -5.64843,-12.56371 -12.5637,-12.56371 z m -139.789204,0.0362 c -6.91469,0 -12.563703,5.61294 -12.563703,12.52765 0,6.91462 5.649013,12.52756 12.563703,12.52756 6.91468,0 12.527597,-5.61294 12.527597,-12.52756 0,-6.91471 -5.612917,-12.52765 -12.527597,-12.52765 z m 18.809444,0.93872 0,15.70459 c 0,4.64188 3.771052,8.4119 8.411906,8.4119 3.163098,0 5.953924,-1.74888 7.401029,-4.33229 1.436623,2.58341 4.202443,4.33229 7.364925,4.33229 4.64176,0 8.448002,-3.77002 8.448002,-8.4119 l 0,-15.70459 -2.093946,0 0,15.70459 c 0,3.51208 -2.841771,6.31792 -6.354056,6.31792 -3.512286,0 -6.317952,-2.80584 -6.317952,-6.31792 l 0,-15.70459 -2.093945,0 0,15.70459 c 0,3.51226 -2.840575,6.31792 -6.354057,6.31792 -3.511098,0 -6.317951,-2.80584 -6.317951,-6.31792 l 0,-15.70459 -2.093955,0 z m 139.03106,0 0,11.58893 c 0,6.9138 5.61273,12.52756 12.5276,12.52756 6.91487,0 12.56369,-5.61358 12.56369,-12.52756 l 0,-11.58893 -2.09394,0 0,11.58893 c 0,5.78364 -4.68474,10.43358 -10.46975,10.43358 -5.785,0 -10.43365,-4.64976 -10.43365,-10.43358 l 0,-11.58893 -2.09395,0 z m -18.0513,1.11911 c 5.78548,0 10.46976,4.68428 10.46976,10.46982 0,5.78545 -4.68428,10.46973 -10.46976,10.46973 -5.78546,0 -10.43364,-4.68428 -10.43364,-10.46973 0,-5.78554 4.64818,-10.46982 10.43364,-10.46982 z m 61.44661,0 10.57806,0 c 0.008,1.38358 0.066,10.91359 0,14.54933 -0.0295,1.61797 -0.917,3.24145 -2.20226,4.44066 -1.28526,1.1992 -2.94854,1.91341 -4.26011,1.91341 l -4.11569,0 c -5.785,0 -10.43365,-4.64976 -10.43365,-10.43358 0,-5.78509 4.64865,-10.46982 10.43365,-10.46982 z m -201.235814,0.0362 c 5.784888,0 10.433643,4.64876 10.433643,10.43367 0,5.78491 -4.648755,10.43367 -10.433643,10.43367 -5.784889,0 -10.469748,-4.64876 -10.469748,-10.43367 0,-5.78491 4.684859,-10.43367 10.469748,-10.43367 z"
       id="circle238"
       inkscape:connector-curvature="0" />
    <text
       xml:space="preserve"
       style="font-style:normal;font-weight:normal;font-size:52.73052597px;line-height:125%;font-family:Sans;letter-spacing:0px;word-spacing:0px;fill:#ffffff;fill-opacity:1;stroke:none;stroke-width:1px;stroke-linecap:butt;stroke-linejoin:miter;stroke-opacity:1"
       x="133.76054"
       y="990.01514"
       id="text5754"
       sodipodi:linespacing="125%"><tspan
         sodipodi:role="line"
         id="tspan5756"
         x="133.76054"
         y="990.01514"
         style="font-style:normal;font-variant:normal;font-weight:normal;font-stretch:normal;font-family:Ubuntu;-inkscape-font-specification:Ubuntu">Files</tspan></text>
  </g>
</svg>
