<?xml version="1.0" encoding="UTF-8" standalone="no"?>
<!-- Generated by IcoMoon.io -->

<svg
   xmlns:dc="http://purl.org/dc/elements/1.1/"
   xmlns:cc="http://creativecommons.org/ns#"
   xmlns:rdf="http://www.w3.org/1999/02/22-rdf-syntax-ns#"
   xmlns:svg="http://www.w3.org/2000/svg"
   xmlns="http://www.w3.org/2000/svg"
   xmlns:sodipodi="http://sodipodi.sourceforge.net/DTD/sodipodi-0.dtd"
   xmlns:inkscape="http://www.inkscape.org/namespaces/inkscape"
   version="1.1"
   width="58"
   height="28"
   viewBox="0 0 58 28"
   id="svg2"
   inkscape:version="0.91 r13725"
   sodipodi:docname="logo+name.svg"
   inkscape:export-filename="/home/brian/dev/ubuntu/owncloud-files-scope/src/data/logo.png"
   inkscape:export-xdpi="926.08636"
   inkscape:export-ydpi="926.08636">
  <metadata
     id="metadata10">
    <rdf:RDF>
      <cc:Work
         rdf:about="">
        <dc:format>image/svg+xml</dc:format>
        <dc:type
           rdf:resource="http://purl.org/dc/dcmitype/StillImage" />
        <dc:title />
      </cc:Work>
    </rdf:RDF>
  </metadata>
  <defs
     id="defs8" />
  <sodipodi:namedview
     pagecolor="#ffffff"
     bordercolor="#666666"
     borderopacity="1"
     objecttolerance="10"
     gridtolerance="10"
     guidetolerance="10"
     inkscape:pageopacity="0"
     inkscape:pageshadow="2"
     inkscape:window-width="1920"
     inkscape:window-height="1035"
     id="namedview6"
     showgrid="false"
     inkscape:zoom="11.9198"
     inkscape:cx="33.913067"
     inkscape:cy="9.0326002"
     inkscape:window-x="0"
     inkscape:window-y="0"
     inkscape:window-maximized="1"
     inkscape:current-layer="svg2"
     fit-margin-top="0"
     fit-margin-left="0"
     fit-margin-right="0"
     fit-margin-bottom="0" />
  <path
     style="color:#000000;font-style:normal;font-variant:normal;font-weight:normal;font-stretch:normal;font-size:medium;line-height:normal;font-family:Sans;-inkscape-font-specification:Sans;text-indent:0;text-align:start;text-decoration:none;text-decoration-line:none;letter-spacing:normal;word-spacing:normal;text-transform:none;direction:ltr;block-progression:tb;writing-mode:lr-tb;baseline-shift:baseline;text-anchor:start;display:inline;overflow:visible;visibility:visible;fill:#ffffff;fill-opacity:1;stroke:none;stroke-width:4;marker:none;enable-background:accumulate"
     d="m 34.901621,-5.7220459e-6 c -2.603951,0 -4.707703,2.1507709220459 -4.707703,4.8129284220459 0,1.0973481 0.357409,2.1073188 0.960002,2.9160687 1.307234,-1.5468519 3.236596,-2.5291486 5.390782,-2.5291486 1.053923,0 2.053331,0.2399338 2.953854,0.6605977 0.07291,-0.3370951 0.110769,-0.6876862 0.110769,-1.0475178 0,-2.6621575 -2.103748,-4.8129284220459 -4.707704,-4.8129284220459 z M 28.753914,2.2271532 c -1.356066,0 -2.446161,1.1238955 -2.446161,2.5102728 0,0.4488687 0.113275,0.8729986 0.313848,1.2362597 0.818304,-0.4719317 1.764354,-0.7455309 2.769238,-0.7455309 0.09698,0 0.190384,0.00403 0.286155,0.00946 -0.01084,-0.14054 -0.01845,-0.2813105 -0.01845,-0.424671 0,-0.7721804 0.164045,-1.5068737 0.452307,-2.1705349 -0.38812,-0.2660787 -0.853123,-0.4152346 -1.356927,-0.4152346 z m 11.612334,1.7269909 c -0.10018,0 -0.196749,0.012572 -0.295385,0.018873 0.04267,0.275024 0.07385,0.5527272 0.07385,0.8399034 0,0.4469211 -0.0556,0.8781767 -0.156923,1.2928832 1.188002,0.6721544 2.174596,1.6778618 2.824621,2.8971957 C 43.486636,8.6441474 44.238759,8.4159711 45.03703,8.3612766 44.831298,5.8946438 42.832479,3.9541435 40.366248,3.9541435 Z m -3.821546,1.7930512 c -3.643711,0 -6.590785,3.012697 -6.590785,6.7381007 0,3.725004 2.946924,6.738111 6.590785,6.738111 3.643859,0 6.590786,-3.013116 6.590786,-6.738111 0,-3.7253961 -2.947074,-6.7381007 -6.590786,-6.7381007 z m -7.153863,0.028311 c -2.826831,0 -5.113859,2.338148 -5.113859,5.2281637 0,1.70129 0.792873,3.207371 2.021543,4.161767 0.517982,-1.02137 1.558325,-1.717557 2.760009,-1.717557 0.145232,0 0.284636,0.01801 0.424613,0.03774 -0.04394,-0.326838 -0.06461,-0.661226 -0.06461,-1.000333 0,-1.621345 0.516223,-3.1206671 1.393846,-4.3316364 C 30.287044,7.4815988 29.911088,6.674088 29.750841,5.7943819 29.632073,5.785968 29.511713,5.7755093 29.390839,5.7755093 Z m 16.024652,3.1142469 c -0.858354,0 -1.662413,0.2240407 -2.372312,0.6039765 0.403107,0.9128583 0.627695,1.9257103 0.627695,2.9915653 0,1.995725 -0.784855,3.807866 -2.058468,5.124352 0.935641,1.061968 2.293148,1.726985 3.803085,1.726985 2.826828,0 5.113859,-2.33814 5.113859,-5.228152 0,-2.890015 -2.287031,-5.2187268 -5.113859,-5.2187268 z M 23.778514,9.5786631 c -2.604025,0 -4.716931,2.1412579 -4.716931,4.8034919 0,2.66223 2.112906,4.822375 4.716931,4.822375 0.991128,0 1.90926,-0.315718 2.667701,-0.849342 -0.313401,-0.497888 -0.498459,-1.093114 -0.498459,-1.726998 0,-0.329003 0.04748,-0.645077 0.138459,-0.943713 -1.419876,-1.049062 -2.344623,-2.756206 -2.344623,-4.680807 0,-0.489002 0.06303,-0.96184 0.175386,-1.415568 -0.04664,-0.00131 -0.09149,-0.00946 -0.138464,-0.00946 z m 27.683145,4.1334579 c -0.138916,0 -0.273335,0.01618 -0.406156,0.03774 0.0073,0.120041 0.0092,0.236682 0.0092,0.358611 0,1.535023 -0.592423,2.928257 -1.550772,3.963578 0.471474,0.560527 1.164002,0.915419 1.947698,0.915419 1.427504,0 2.584623,-1.173541 2.584623,-2.632966 0,-1.459411 -1.157119,-2.64239 -2.584623,-2.64239 z m -22.403127,0.283114 c -1.427435,0 -2.575393,1.173613 -2.575393,2.632955 0,1.459332 1.147958,2.642393 2.575393,2.642393 1.094143,0 2.02286,-0.697986 2.400005,-1.679812 -0.920249,-0.958211 -1.581621,-2.180646 -1.87385,-3.538915 -0.171006,-0.03615 -0.344578,-0.05662 -0.526155,-0.05662 z m 28.310834,2.21772 0,5.218724 -2.704623,0 c -1.768006,0 -3.203084,1.476563 -3.203084,3.284118 0,1.807272 1.435078,3.274671 3.203084,3.274671 l 0.784619,0 0.267693,0 c 0.518667,0 1.03659,-0.257531 1.449232,-0.651165 0.412647,-0.393613 0.72759,-0.93889 0.738464,-1.547683 0.01856,-1.044942 0,-4.086261 0,-4.086261 l 0,-0.132128 0,-5.360276 -0.535385,0 z m -24.729289,2.359287 0,7.219378 c 0,1.21335 0.973191,2.198848 2.160007,2.198848 l 0,-0.547339 c -0.89803,0 -1.624619,-0.733415 -1.624619,-1.651509 l 0,-6.879646 c -0.186391,-0.102428 -0.359387,-0.221317 -0.535388,-0.339732 z m -5.353859,0.67004 c -0.948269,0.925008 -1.54154,2.227431 -1.54154,3.671027 0,2.800986 2.226582,5.077159 4.966165,5.077159 l 0,-0.547339 c -2.450749,0 -4.430779,-2.02416 -4.430779,-4.52982 0,-1.34768 0.575396,-2.55885 1.486158,-3.387921 -0.170232,-0.08016 -0.327906,-0.17407 -0.480004,-0.283106 z m -6.304632,2.170521 c -1.76801,0 -3.203084,1.467137 -3.203084,3.274692 l 0,3.029313 0.535387,0 0,-3.029313 c 0,-1.512205 1.188575,-2.736781 2.667697,-2.736781 1.479413,0 2.676929,1.224576 2.676929,2.736781 l 0,3.029313 0.535385,0 0,-3.029313 c 0,-1.807555 -1.444062,-3.274692 -3.212314,-3.274692 z m 17.972352,0.01896 c -1.768107,0 -3.203084,1.476491 -3.203084,3.284118 0,1.807626 1.434977,3.284118 3.203084,3.284118 1.768112,0 3.212313,-1.476492 3.212313,-3.284118 0,-1.807627 -1.444201,-3.284118 -3.212313,-3.284118 z m -35.7416219,0.0095 C 1.4443524,21.441266 0,22.908473 0,24.715959 c 0,1.807461 1.4443524,3.274668 3.2123161,3.274668 1.7679609,0 3.2030841,-1.467207 3.2030841,-3.274668 0,-1.807486 -1.4351232,-3.274693 -3.2030841,-3.274693 z m 4.8092407,0.245379 0,4.105135 c 0,1.213375 0.9641914,2.198847 2.1507742,2.198847 0.80875,0 1.522314,-0.457153 1.892312,-1.132448 0.36732,0.675295 1.074491,1.132448 1.883081,1.132448 1.186816,0 2.160005,-0.985472 2.160005,-2.198847 l 0,-4.105135 -0.535386,0 0,4.105135 c 0,0.918049 -0.72659,1.651486 -1.624619,1.651486 -0.898029,0 -1.615388,-0.733437 -1.615388,-1.651486 l 0,-4.105135 -0.535384,0 0,4.105135 c 0,0.918096 -0.726286,1.651486 -1.624621,1.651486 -0.8977246,0 -1.6153869,-0.733437 -1.6153869,-1.651486 l 0,-4.105135 -0.5353873,0 z m 35.5477772,0 0,3.029314 c 0,1.807248 1.435075,3.274668 3.203084,3.274668 1.76801,0 3.212313,-1.467373 3.212313,-3.274668 l 0,-3.029314 -0.535382,0 0,3.029314 c 0,1.511827 -1.197805,2.727307 -2.676931,2.727307 -1.47912,0 -2.667698,-1.215433 -2.667698,-2.727307 l 0,-3.029314 -0.535386,0 z m -4.615396,0.292532 c 1.479242,0 2.67693,1.224457 2.67693,2.736782 0,1.512299 -1.197688,2.736757 -2.67693,2.736757 -1.47924,0 -2.667698,-1.224458 -2.667698,-2.736757 0,-1.512325 1.188458,-2.736782 2.667698,-2.736782 z m 15.710805,0 2.704623,0 c 0.0019,0.361664 0.01687,2.852782 0,3.803154 -0.0076,0.422933 -0.234461,0.847305 -0.563078,1.160775 -0.328617,0.313468 -0.75389,0.50016 -1.089233,0.50016 l -1.052312,0 c -1.479121,0 -2.667698,-1.215433 -2.667698,-2.727307 0,-1.512207 1.188577,-2.736782 2.667698,-2.736782 z m -51.4524269,0.0095 c 1.4790932,0 2.6676971,1.215172 2.6676971,2.727332 0,1.512159 -1.1886039,2.727331 -2.6676971,2.727331 -1.4790935,0 -2.67692887,-1.215172 -2.67692887,-2.727331 0,-1.51216 1.19783537,-2.727332 2.67692887,-2.727332 z"
     id="circle238"
     inkscape:connector-curvature="0" />
</svg>
